# xmcd
#
# Track frame offsets:
# 150
# 13980
# 36039
# 52224
# 67074
# 81754
# 103966
# 122709
# 139876
# 159675
# 175664
# 189604
# 205788
# 222432
# 237690
#
# Disc length: 3580 seconds
#
# Revision: 0
# Processed by: cddbd v1.5.1PL2 Copyright (c) Steve Scherf et al.
# Submitted via: Audion 3.0.2 (http://www.panic.com/audion/)
#
DISCID=ea0dfa0f
DTITLE=Wir sind Helden - Wir sind Helden
DYEAR=1900
DGENRE=
TTITLE0=Ist das so?
TTITLE1=Rüssel an Schwanz
TTITLE2=Guten Tag
TTITLE3=Denkmal
TTITLE4=Alphamännchen
TTITLE5=Du erkennst mich nich wieder
TTITLE6=Die Zeit heilt alle Wunder
TTITLE7=Monster
TTITLE8=Heldenzeit
TTITLE9=Aurelie
TTITLE10=Müssen nur wollen
TTITLE11=Ausser Dir
TTITLE12=Schwul Mutti
TTITLE13=Die Nacht
TTITLE14=Ohne Worte
EXTD=
EXTT0=
EXTT1=
EXTT2=
EXTT3=
EXTT4=
EXTT5=
EXTT6=
EXTT7=
EXTT8=
EXTT9=
EXTT10=
EXTT11=
EXTT12=
EXTT13=
EXTT14=
PLAYORDER=
